<svg className="grd-logo" xmlns="http://www.w3.org/2000/svg" viewBox="0 0 1904.4 743.46">
  <defs>
    <style>
    .grd-icon-green,
    .grd-text-green{
      fill:#8bad33;
    }
    .grd-icon-gray,
    .grd-text-roof{
      fill:#464143;
    }
    .grd-icon-red,
    .grd-text-diagnostics{
      fill:#c12b5b;
    }
    </style>
  </defs>
  <title>green-roof-diagnostics-logo</title>
  <g id="grd-icon-green">
    <path class="grd-icon-green" d="M409.21,194.81c-19.94-27.53-42.36-51.46-65.21-70.47l.71-.78a351.1,351.1,0,0,1-39.85-41A340.16,340.16,0,0,1,261.53,16c-33.15,29.88-51.19,79.55-43.16,131.58a157.84,157.84,0,0,0,32.46,74.66L349,320.41l-.3.3H350v133H151.47c-3.31,42.71,40.66,87.46,103.66,103.11a180.71,180.71,0,0,0,49.21,5.39l-.07.28c40,0,82.33-18.89,114.73-51.29,28.34-28.34,45.25-63.19,49.79-96.69a218.29,218.29,0,0,0,4-40.5C478.33,325.87,454.16,256.87,409.21,194.81Z" transform="translate(-24 -16.03)"/>
  </g>
  <g id="grd-icon-gray">
    <path class="grd-icon-gray" d="M216.53,118.91c0-.92.07-1.83.11-2.74,0-.65,0-1.3.08-1.94.05-1,.13-1.9.2-2.85,0-.6.08-1.2.13-1.79.08-1,.19-2,.29-3,.06-.55.1-1.1.17-1.64.12-1,.26-2,.39-3,.07-.5.13-1,.2-1.51.15-1.05.33-2.1.5-3.14.08-.45.14-.91.22-1.37.19-1.08.4-2.16.61-3.23.08-.41.15-.82.24-1.23.23-1.11.48-2.21.73-3.31.08-.36.16-.73.24-1.09.27-1.14.56-2.27.85-3.39.08-.32.16-.64.24-1,.31-1.16.64-2.31,1-3.46.08-.28.16-.56.24-.83.35-1.18.73-2.35,1.11-3.52l.23-.71c.4-1.2.82-2.39,1.24-3.57l.21-.59q.66-1.82,1.38-3.61l.19-.49q.73-1.83,1.52-3.64l.17-.39q.8-1.84,1.65-3.65l.14-.3q.87-1.85,1.79-3.66l.11-.22q.94-1.84,1.93-3.65l.08-.16q1-1.84,2.06-3.63l.05-.09q1.07-1.82,2.19-3.6l0,0q1.13-1.8,2.32-3.55h0a127.79,127.79,0,0,1,19-22.25c-57.61,28.24-116.6,83.27-162,152.85A524.22,524.22,0,0,0,59.7,240.31l-.18-.15c-.09.36-.16.74-.25,1.1-.38.85-.78,1.7-1.16,2.55l.57,0c-12.17,55.58,8.87,132.59,55,200.35q1.8,2.64,3.64,5.25l1.14,1.59q1.29,1.82,2.6,3.62l1.32,1.79q1.26,1.7,2.53,3.38l1.35,1.77q1.31,1.71,2.63,3.39l1.29,1.63q1.42,1.79,2.85,3.56l1.12,1.38q1.65,2,3.32,4l.72.86q4.17,4.92,8.47,9.65a348.24,348.24,0,0,0,28.06,27.62h0c18.77,19,46.31,34.65,78.82,42.72l.77.18c-54.54-13.8-94.64-49.43-101.84-86.51v0q-.19-1-.34-1.92l0-.13q-.15-.91-.26-1.82l0-.23c-.07-.58-.14-1.15-.19-1.73,0-.11,0-.21,0-.32-.05-.54-.09-1.09-.13-1.63,0-.14,0-.28,0-.42,0-.52-.05-1-.07-1.56,0-.16,0-.32,0-.48,0-.5,0-1,0-1.49,0-.18,0-.37,0-.55,0-.49,0-1,0-1.48,0-.18,0-.37,0-.55q0-1,.12-2H151v-133h.18l.25-.24-.06-.06,98.8-98.8,0,0,.07-.09a158,158,0,0,1-31.9-73.94q-.37-2.42-.67-4.84c-.07-.56-.12-1.11-.18-1.67-.12-1.05-.24-2.1-.34-3.15-.07-.7-.11-1.4-.17-2.1-.07-.9-.15-1.8-.21-2.7s-.08-1.56-.12-2.34-.09-1.63-.12-2.44,0-1.66,0-2.49,0-1.5,0-2.25,0-1.75,0-2.63C216.51,120.3,216.51,119.61,216.53,118.91Z" transform="translate(-24 -16.03)"/>

  </g>
  <g id="grd-icon-red">
    <path class="grd-icon-red" d="M211,645.9c9,3.21,18,6.79,26.91,10.77A344.08,344.08,0,0,1,305,696.17V562.48h-.71l.13-.56a185,185,0,0,1-50.89-5.51c-32.51-8.07-60-23.69-78.82-42.72h0a368.77,368.77,0,0,1-61-69.49c-46.13-67.76-67.16-144.78-55-200.35l-.52,0a288.37,288.37,0,0,0-19.33,51.08c-.55,2-1.07,4-1.57,6C28.6,327.7,24,357.95,24,388.81a299.18,299.18,0,0,0,5,54.74,205.44,205.44,0,0,0,19,59.77A182.19,182.19,0,0,0,57,520.09a212.72,212.72,0,0,0,38.48,47.65,327.46,327.46,0,0,0,42.4,37.2A314.68,314.68,0,0,0,211,645.4Z" transform="translate(-24 -16.03)"/>
  </g>
  <g id="grd-text-green">
    <path class="grd-text-green" d="M665.49,326.63a190.74,190.74,0,0,1-28.16,9.46,132.4,132.4,0,0,1-34.13,4.61q-38.84,0-61.91-24.56t-23.07-69.69q0-42.45,23.07-68t63.13-25.59q20.69,0,33.64,4.31a172.5,172.5,0,0,1,26.78,11.71v42.33h-3.76q-3-2.55-8.58-7.22a94.55,94.55,0,0,0-10.9-7.94,69.39,69.39,0,0,0-14.33-6.67,52.68,52.68,0,0,0-17.21-2.79,49.91,49.91,0,0,0-19.36,3.64,43.79,43.79,0,0,0-15.6,11.16,52.81,52.81,0,0,0-10.35,18.44q-3.82,11.16-3.82,26,0,31.66,14.5,46.7t39.61,15q2.21,0,5.2-.12t5.2-.36V271.56h-32V237.72h72Z" transform="translate(-24 -16.03)"/>
    <path class="grd-text-green" d="M777.91,240.87H774.7a26.33,26.33,0,0,0-6.42-1.27q-4.21-.42-9.29-.42a45.92,45.92,0,0,0-12.78,1.94,117,117,0,0,0-13,4.61v91.21H694.48V200.72h38.73v19.53q2.65-2.67,7.36-6.73a71.46,71.46,0,0,1,8.58-6.49,45.24,45.24,0,0,1,9.79-4.79,31.37,31.37,0,0,1,10.57-2q1.88,0,4.21.12t4.2.36Z" transform="translate(-24 -16.03)"/>
    <path class="grd-text-green" d="M856.5,340.58q-34.85,0-53.42-18.44T784.5,269.62q0-33.36,17.32-53.25t48.44-19.89q28.27,0,42.52,16.86T907,261.61V276.9H823a42,42,0,0,0,3.62,15.83,26.9,26.9,0,0,0,8.11,10.13,31.14,31.14,0,0,0,11.51,5.4,59.33,59.33,0,0,0,14.36,1.64,53.37,53.37,0,0,0,13.15-1.64,59.14,59.14,0,0,0,11.83-4.31,75.14,75.14,0,0,0,8.71-5q4-2.67,6.52-4.73h4.05V329.3q-4.71,2.06-8.6,3.82a72.32,72.32,0,0,1-10.69,3.58,102.15,102.15,0,0,1-12.88,2.85A107.53,107.53,0,0,1,856.5,340.58Zm12.71-89.27q-.33-13.46-5.64-20.5t-16.27-7q-11.18,0-17.48,7.4t-7,20.14Z" transform="translate(-24 -16.03)"/>
    <path class="grd-text-green" d="M989.76,340.58q-34.85,0-53.42-18.44t-18.58-52.52q0-33.36,17.32-53.25t48.44-19.89q28.27,0,42.52,16.86t14.25,48.28V276.9H956.23a42,42,0,0,0,3.62,15.83A26.9,26.9,0,0,0,968,302.85a31.14,31.14,0,0,0,11.51,5.4,59.33,59.33,0,0,0,14.36,1.64,53.37,53.37,0,0,0,13.15-1.64,59.14,59.14,0,0,0,11.83-4.31,75.14,75.14,0,0,0,8.71-5q4-2.67,6.52-4.73h4.05V329.3q-4.71,2.06-8.6,3.82a72.32,72.32,0,0,1-10.69,3.58,102.15,102.15,0,0,1-12.88,2.85A107.53,107.53,0,0,1,989.76,340.58Zm12.71-89.27q-.33-13.46-5.64-20.5t-16.27-7q-11.18,0-17.48,7.4t-7,20.14Z" transform="translate(-24 -16.03)"/>
    <path class="grd-text-green" d="M1175.3,336.94h-38.58V269.38q0-8.25-.6-16.44t-2.25-12.07a12.93,12.93,0,0,0-5.7-6.61q-3.73-2-10-2a25.41,25.41,0,0,0-9.53,1.94,44.07,44.07,0,0,0-10.3,6.19v96.55H1060V200.72h38.36v15a94.28,94.28,0,0,1,18.36-13.83,40,40,0,0,1,19.78-5q18.85,0,28.82,13.16t10,38.15Z" transform="translate(-24 -16.03)"/>
  </g>
  <g id="grd-text-roof">
    <path class="grd-text-roof" d="M1399.26,336.94H1344l-50.25-66.23h-16.23v66.23h-45V156.33h72.53a159.24,159.24,0,0,1,26.16,1.88A55.7,55.7,0,0,1,1351.8,166a47.24,47.24,0,0,1,15.38,15.71q5.69,9.52,5.69,24.2,0,20.74-9.32,33.66a65.67,65.67,0,0,1-24.94,20.56Zm-72.9-125.3a24.68,24.68,0,0,0-2.6-11.71,17.18,17.18,0,0,0-8.66-7.58,31.17,31.17,0,0,0-9.45-2.3q-5.21-.48-13-.49h-15.14V238.2h13a95,95,0,0,0,16-1.15,23.81,23.81,0,0,0,11.2-4.91,21.22,21.22,0,0,0,6.48-8.13Q1326.36,219.28,1326.37,211.64Z" transform="translate(-24 -16.03)"/>
    <path class="grd-text-roof" d="M1540.7,268.89q0,33.6-18.35,52.95t-51.89,19.35q-33.3,0-51.77-19.35t-18.47-52.95q0-34,18.47-53.19t51.77-19.23q33.42,0,51.83,19.35T1540.7,268.89Zm-43.47.24a85.77,85.77,0,0,0-2-20.2,37.25,37.25,0,0,0-5.51-12.92,20.72,20.72,0,0,0-8.48-7.1,27.4,27.4,0,0,0-10.78-2,28.66,28.66,0,0,0-10.29,1.76,20,20,0,0,0-8.48,6.73q-3.63,4.73-5.81,13t-2.18,20.74q0,12.49,2.06,20.2a38.43,38.43,0,0,0,5.33,12.31,20,20,0,0,0,8.48,6.91,28.26,28.26,0,0,0,11.26,2.18,26.91,26.91,0,0,0,10.35-2.18,19.19,19.19,0,0,0,8.42-6.55,37.8,37.8,0,0,0,5.69-12.55Q1497.23,282.11,1497.23,269.13Z" transform="translate(-24 -16.03)"/>
    <path class="grd-text-roof" d="M1693.76,268.89q0,33.6-18.35,52.95t-51.89,19.35q-33.3,0-51.77-19.35t-18.47-52.95q0-34,18.47-53.19t51.77-19.23q33.42,0,51.83,19.35T1693.76,268.89Zm-43.47.24a85.77,85.77,0,0,0-2-20.2,37.25,37.25,0,0,0-5.51-12.92,20.72,20.72,0,0,0-8.48-7.1,27.4,27.4,0,0,0-10.78-2,28.66,28.66,0,0,0-10.29,1.76,20,20,0,0,0-8.48,6.73q-3.63,4.73-5.81,13t-2.18,20.74q0,12.49,2.06,20.2a38.43,38.43,0,0,0,5.33,12.31,20,20,0,0,0,8.48,6.91,28.26,28.26,0,0,0,11.26,2.18,26.91,26.91,0,0,0,10.35-2.18,19.19,19.19,0,0,0,8.42-6.55,37.8,37.8,0,0,0,5.69-12.55Q1650.29,282.11,1650.29,269.13Z" transform="translate(-24 -16.03)"/>
    <path class="grd-text-roof" d="M1803.23,180.22H1800q-2.42-.73-7.57-1.88a44.73,44.73,0,0,0-9.75-1.15q-12.84,0-17.5,4.73t-4.66,17.71v1.09h33.66v29.6h-32.21V336.94h-42.38V230.32h-17v-29.6h17V197q0-25,13.08-37.48t39.6-12.49q9.2,0,17.2.67a138.39,138.39,0,0,1,13.8,1.76Z" transform="translate(-24 -16.03)"/>
  </g>
  <g id="grd-text-diagnostics">
    <path class="grd-text-diagnostics" d="M519.74,452V374.67h33q20,0,31.62,4.74a42.53,42.53,0,0,1,18.51,14,32.86,32.86,0,0,1,6.87,20.08A31.16,31.16,0,0,1,606,428.3a38.62,38.62,0,0,1-10.8,12.48,50.32,50.32,0,0,1-16.61,8.38,59.79,59.79,0,0,1-10.16,2.3,171.59,171.59,0,0,1-17.67.58Zm31.55-67.5H533.76v57.63H551.7A90.08,90.08,0,0,0,568,441a45,45,0,0,0,9.71-2.88,33.6,33.6,0,0,0,7.12-4.3q10.37-8.32,10.38-21,0-12.48-10.66-20.36a35.59,35.59,0,0,0-9-4.83,45.11,45.11,0,0,0-9.64-2.5A123.48,123.48,0,0,0,551.28,384.54Z" transform="translate(-24 -16.03)"/>
    <path class="grd-text-diagnostics" d="M655.74,374.67h14v77.49h-14Z" transform="translate(-24 -16.03)"/>
    <path class="grd-text-diagnostics" d="M762.87,374.23h9.85l43.91,77.93H802.28l-13.05-23H747.45l-12.24,23H720.8Zm20.6,45.09-15.8-28.07L753,419.32Z" transform="translate(-24 -16.03)"/>
    <path class="grd-text-diagnostics" d="M916.52,414H949.4v32.84A110,110,0,0,1,913.51,453q-24.33,0-38.87-11.23t-14.54-27.71q0-17.36,15.07-28.9t37.78-11.54a83.87,83.87,0,0,1,15.7,1.41,153,153,0,0,1,18.79,5.19v11.31a82.84,82.84,0,0,0-34.77-8q-16.05,0-27.06,8.65t-11,21.24q0,13.2,11,21.58t28.32,8.38A81.71,81.71,0,0,0,934,440.34l1.33-.33V423.87H916.52Z" transform="translate(-24 -16.03)"/>
    <path class="grd-text-diagnostics" d="M1085.41,374.67h13.32v77.49h-12.06l-65.47-59.68v59.68H1008V374.67h11.36l66,60.18Z" transform="translate(-24 -16.03)"/>
    <path class="grd-text-diagnostics" d="M1202.65,373.56q22.7,0,37.79,11.37t15.1,28.51q0,17.14-15.24,28.37T1201.88,453q-22.14,0-36.88-11.23t-14.75-28.15q0-17.36,14.85-28.73T1202.65,373.56Zm.56,10.54q-16.81,0-27.63,8.32t-10.82,21.24q0,12.54,10.86,20.86t27.17,8.32q16.39,0,27.35-8.49t11-21.13q0-12.31-11-20.72T1203.21,384.1Z" transform="translate(-24 -16.03)"/>
    <path class="grd-text-diagnostics" d="M1337.85,419.69l-10.66-5.12q-10-4.84-14.27-9.53a15.6,15.6,0,0,1-4.24-10.79q0-9.15,8-14.86t20.85-5.71a47.13,47.13,0,0,1,22.5,5.45v12.59a36.9,36.9,0,0,0-22.78-8.06,22.61,22.61,0,0,0-11.29,2.51q-4.42,2.51-4.42,6.44,0,3.48,3.25,6.52t10.46,6.38l10.71,5q17.92,8.47,17.92,21.56,0,9.32-7.89,15.14t-20.5,5.82a50.89,50.89,0,0,1-26.43-7.06V431.9q11.36,11.38,26.29,11.38a19.47,19.47,0,0,0,11-2.9q4.38-2.9,4.38-7.27Q1350.75,426,1337.85,419.69Z" transform="translate(-24 -16.03)"/>
    <path class="grd-text-diagnostics" d="M1407.26,374.56h81.81v9.87h-34.14v67.72h-14.09V384.43h-33.58Z" transform="translate(-24 -16.03)"/>
    <path class="grd-text-diagnostics" d="M1538.74,374.67h14v77.49h-14Z" transform="translate(-24 -16.03)"/>
    <path class="grd-text-diagnostics" d="M1696,434.18v12.2q-15.42,6.66-35.61,6.66-16.4,0-27.83-5.21a44.82,44.82,0,0,1-18.09-14.37,33,33,0,0,1-6.66-19.8q0-16.92,15.25-28.45t37.61-11.54q15.42,0,34.28,6.38V392q-17.18-7.77-33.58-7.77-16.82,0-27.94,8.4t-11.11,21q0,12.76,10.94,21t28,8.21A75.7,75.7,0,0,0,1696,434.18Z" transform="translate(-24 -16.03)"/>
    <path class="grd-text-diagnostics" d="M1772.85,419.69l-10.66-5.12q-10-4.84-14.27-9.53a15.6,15.6,0,0,1-4.24-10.79q0-9.15,8-14.86t20.85-5.71a47.13,47.13,0,0,1,22.5,5.45v12.59a36.9,36.9,0,0,0-22.78-8.06,22.61,22.61,0,0,0-11.29,2.51q-4.42,2.51-4.42,6.44,0,3.48,3.25,6.52t10.46,6.38l10.71,5q17.92,8.47,17.92,21.56,0,9.32-7.89,15.14t-20.5,5.82a50.89,50.89,0,0,1-26.43-7.06V431.9q11.36,11.38,26.29,11.38a19.47,19.47,0,0,0,11-2.9q4.38-2.9,4.38-7.27Q1785.75,426,1772.85,419.69Z" transform="translate(-24 -16.03)"/>
  </g>
</svg>