<svg xmlns="http://www.w3.org/2000/svg" xmlns:xlink="http://www.w3.org/1999/xlink" xmlns:fi="http://pattern.flaticon.com/" x="0" y="0" width="700" height="350" viewBox="0 0 700 350"><rect x="0px" y="0px" width="100%" height="100%" opacity="1" fill="#8ce3f4"/><defs><path d="m484.078125 118.808594c-16.96875-16.96875-39.210937-26.753906-63.03125-27.820313-1.003906-23.617187-10.71875-45.929687-27.855469-63.066406-18.007812-18.007813-41.945312-27.921875-67.410156-27.921875s-49.40625 9.914062-67.410156 27.921875c-33.566406 33.5625-36.824219 86.128906-9.777344 123.378906l-97.28125 97.285157c-16.171875-11.785157-35.585938-18.140626-55.980469-18.140626 0 0 .003907 0 0 0-25.460937 0-49.402343 9.917969-67.40625 27.921876-18.007812 18.007812-27.925781 41.949218-27.925781 67.414062 0 25.460938 9.914062 49.402344 27.921875 67.40625 16.96875 16.96875 39.210937 26.753906 63.03125 27.824219 1.003906 23.613281 10.71875 45.929687 27.855469 63.0625 18.003906 18.007812 41.945312 27.921875 67.410156 27.921875s49.402344-9.914063 67.410156-27.921875c33.5625-33.5625 36.820313-86.128907 9.773438-123.378907l97.285156-97.285156c16.171875 11.785156 35.585938 18.144532 55.980469 18.144532 25.464843 0 49.402343-9.917969 67.40625-27.925782 18.007812-18.003906 27.925781-41.945312 27.925781-67.410156s-9.914062-49.40625-27.921875-67.410156zm-21.214844 113.609375c-12.339843 12.339843-28.746093 19.136719-46.195312 19.136719-17.453125 0-33.859375-6.796876-46.199219-19.136719-2.8125-2.8125-6.628906-4.394531-10.605469-4.394531-3.976562 0-7.792969 1.582031-10.605469 4.394531l-116.839843 116.835937c-5.859375 5.859375-5.859375 15.355469 0 21.214844 25.472656 25.472656 25.472656 66.921875-.003907 92.394531-12.339843 12.339844-28.746093 19.136719-46.195312 19.136719-17.453125 0-33.859375-6.796875-46.199219-19.140625-14.664062-14.664063-21.398437-34.875-18.476562-55.445313.664062-4.667968-.90625-9.378906-4.242188-12.714843-2.835937-2.832031-6.65625-4.394531-10.605469-4.394531-.703124 0-1.40625.050781-2.113281.148437-3.050781.433594-6.167969.65625-9.253906.65625-17.453125 0-33.855469-6.796875-46.191406-19.132813-12.339844-12.339843-19.136719-28.746093-19.136719-46.195312 0-17.453125 6.796875-33.859375 19.136719-46.199219 12.339843-12.339843 28.746093-19.136719 46.195312-19.136719 17.453125 0 33.859375 6.796876 46.199219 19.136719 2.8125 2.8125 6.625 4.390625 10.605469 4.390625 3.976562 0 7.792969-1.578125 10.605469-4.390625l116.839843-116.839843c5.855469-5.855469 5.855469-15.351563 0-21.210938-25.472656-25.472656-25.472656-66.921875 0-92.394531 12.339844-12.339844 28.746094-19.136719 46.195313-19.136719 17.453125 0 33.859375 6.796875 46.199218 19.136719 14.667969 14.664062 21.402344 34.875 18.480469 55.449219-.664062 4.667968.910157 9.378906 4.246094 12.714843 3.335937 3.335938 8.046875 4.90625 12.714844 4.242188 3.054687-.433594 6.167969-.652344 9.253906-.652344 17.449219 0 33.855469 6.792969 46.191406 19.132813 12.339844 12.339843 19.136719 28.746093 19.136719 46.195312 0 17.453125-6.796875 33.859375-19.136719 46.199219zm0 0" transform="matrix(0.1171874925494194 0 0 0.1171874925494194 217 15.000000102539047)" fill="#ffffff"/><path d="m484.078125 118.808594c-16.96875-16.96875-39.210937-26.753906-63.03125-27.820313-1.003906-23.617187-10.71875-45.929687-27.855469-63.066406-18.007812-18.007813-41.945312-27.921875-67.410156-27.921875s-49.40625 9.914062-67.410156 27.921875c-33.566406 33.5625-36.824219 86.128906-9.777344 123.378906l-97.28125 97.285157c-16.171875-11.785157-35.585938-18.140626-55.980469-18.140626 0 0 .003907 0 0 0-25.460937 0-49.402343 9.917969-67.40625 27.921876-18.007812 18.007812-27.925781 41.949218-27.925781 67.414062 0 25.460938 9.914062 49.402344 27.921875 67.40625 16.96875 16.96875 39.210937 26.753906 63.03125 27.824219 1.003906 23.613281 10.71875 45.929687 27.855469 63.0625 18.003906 18.007812 41.945312 27.921875 67.410156 27.921875s49.402344-9.914063 67.410156-27.921875c33.5625-33.5625 36.820313-86.128907 9.773438-123.378907l97.285156-97.285156c16.171875 11.785156 35.585938 18.144532 55.980469 18.144532 25.464843 0 49.402343-9.917969 67.40625-27.925782 18.007812-18.003906 27.925781-41.945312 27.925781-67.410156s-9.914062-49.40625-27.921875-67.410156zm-21.214844 113.609375c-12.339843 12.339843-28.746093 19.136719-46.195312 19.136719-17.453125 0-33.859375-6.796876-46.199219-19.136719-2.8125-2.8125-6.628906-4.394531-10.605469-4.394531-3.976562 0-7.792969 1.582031-10.605469 4.394531l-116.839843 116.835937c-5.859375 5.859375-5.859375 15.355469 0 21.214844 25.472656 25.472656 25.472656 66.921875-.003907 92.394531-12.339843 12.339844-28.746093 19.136719-46.195312 19.136719-17.453125 0-33.859375-6.796875-46.199219-19.140625-14.664062-14.664063-21.398437-34.875-18.476562-55.445313.664062-4.667968-.90625-9.378906-4.242188-12.714843-2.835937-2.832031-6.65625-4.394531-10.605469-4.394531-.703124 0-1.40625.050781-2.113281.148437-3.050781.433594-6.167969.65625-9.253906.65625-17.453125 0-33.855469-6.796875-46.191406-19.132813-12.339844-12.339843-19.136719-28.746093-19.136719-46.195312 0-17.453125 6.796875-33.859375 19.136719-46.199219 12.339843-12.339843 28.746093-19.136719 46.195312-19.136719 17.453125 0 33.859375 6.796876 46.199219 19.136719 2.8125 2.8125 6.625 4.390625 10.605469 4.390625 3.976562 0 7.792969-1.578125 10.605469-4.390625l116.839843-116.839843c5.855469-5.855469 5.855469-15.351563 0-21.210938-25.472656-25.472656-25.472656-66.921875 0-92.394531 12.339844-12.339844 28.746094-19.136719 46.195313-19.136719 17.453125 0 33.859375 6.796875 46.199218 19.136719 14.667969 14.664062 21.402344 34.875 18.480469 55.449219-.664062 4.667968.910157 9.378906 4.246094 12.714843 3.335937 3.335938 8.046875 4.90625 12.714844 4.242188 3.054687-.433594 6.167969-.652344 9.253906-.652344 17.449219 0 33.855469 6.792969 46.191406 19.132813 12.339844 12.339843 19.136719 28.746093 19.136719 46.195312 0 17.453125-6.796875 33.859375-19.136719 46.199219zm0 0" transform="matrix(0.1171874925494194 0 0 0.1171874925494194 128 139.00000007324218)" id="L1_33" fill="#ffffff"/><path d="m484.078125 118.808594c-16.96875-16.96875-39.210937-26.753906-63.03125-27.820313-1.003906-23.617187-10.71875-45.929687-27.855469-63.066406-18.007812-18.007813-41.945312-27.921875-67.410156-27.921875s-49.40625 9.914062-67.410156 27.921875c-33.566406 33.5625-36.824219 86.128906-9.777344 123.378906l-97.28125 97.285157c-16.171875-11.785157-35.585938-18.140626-55.980469-18.140626 0 0 .003907 0 0 0-25.460937 0-49.402343 9.917969-67.40625 27.921876-18.007812 18.007812-27.925781 41.949218-27.925781 67.414062 0 25.460938 9.914062 49.402344 27.921875 67.40625 16.96875 16.96875 39.210937 26.753906 63.03125 27.824219 1.003906 23.613281 10.71875 45.929687 27.855469 63.0625 18.003906 18.007812 41.945312 27.921875 67.410156 27.921875s49.402344-9.914063 67.410156-27.921875c33.5625-33.5625 36.820313-86.128907 9.773438-123.378907l97.285156-97.285156c16.171875 11.785156 35.585938 18.144532 55.980469 18.144532 25.464843 0 49.402343-9.917969 67.40625-27.925782 18.007812-18.003906 27.925781-41.945312 27.925781-67.410156s-9.914062-49.40625-27.921875-67.410156zm-21.214844 113.609375c-12.339843 12.339843-28.746093 19.136719-46.195312 19.136719-17.453125 0-33.859375-6.796876-46.199219-19.136719-2.8125-2.8125-6.628906-4.394531-10.605469-4.394531-3.976562 0-7.792969 1.582031-10.605469 4.394531l-116.839843 116.835937c-5.859375 5.859375-5.859375 15.355469 0 21.214844 25.472656 25.472656 25.472656 66.921875-.003907 92.394531-12.339843 12.339844-28.746093 19.136719-46.195312 19.136719-17.453125 0-33.859375-6.796875-46.199219-19.140625-14.664062-14.664063-21.398437-34.875-18.476562-55.445313.664062-4.667968-.90625-9.378906-4.242188-12.714843-2.835937-2.832031-6.65625-4.394531-10.605469-4.394531-.703124 0-1.40625.050781-2.113281.148437-3.050781.433594-6.167969.65625-9.253906.65625-17.453125 0-33.855469-6.796875-46.191406-19.132813-12.339844-12.339843-19.136719-28.746093-19.136719-46.195312 0-17.453125 6.796875-33.859375 19.136719-46.199219 12.339843-12.339843 28.746093-19.136719 46.195312-19.136719 17.453125 0 33.859375 6.796876 46.199219 19.136719 2.8125 2.8125 6.625 4.390625 10.605469 4.390625 3.976562 0 7.792969-1.578125 10.605469-4.390625l116.839843-116.839843c5.855469-5.855469 5.855469-15.351563 0-21.210938-25.472656-25.472656-25.472656-66.921875 0-92.394531 12.339844-12.339844 28.746094-19.136719 46.195313-19.136719 17.453125 0 33.859375 6.796875 46.199218 19.136719 14.667969 14.664062 21.402344 34.875 18.480469 55.449219-.664062 4.667968.910157 9.378906 4.246094 12.714843 3.335937 3.335938 8.046875 4.90625 12.714844 4.242188 3.054687-.433594 6.167969-.652344 9.253906-.652344 17.449219 0 33.855469 6.792969 46.191406 19.132813 12.339844 12.339843 19.136719 28.746093 19.136719 46.195312 0 17.453125-6.796875 33.859375-19.136719 46.199219zm0 0" transform="matrix(0.1171874925494194 0 0 0.1171874925494194 176 201.00000010253905)" fill="#ffffff"/><path d="m484.078125 118.808594c-16.96875-16.96875-39.210937-26.753906-63.03125-27.820313-1.003906-23.617187-10.71875-45.929687-27.855469-63.066406-18.007812-18.007813-41.945312-27.921875-67.410156-27.921875s-49.40625 9.914062-67.410156 27.921875c-33.566406 33.5625-36.824219 86.128906-9.777344 123.378906l-97.28125 97.285157c-16.171875-11.785157-35.585938-18.140626-55.980469-18.140626 0 0 .003907 0 0 0-25.460937 0-49.402343 9.917969-67.40625 27.921876-18.007812 18.007812-27.925781 41.949218-27.925781 67.414062 0 25.460938 9.914062 49.402344 27.921875 67.40625 16.96875 16.96875 39.210937 26.753906 63.03125 27.824219 1.003906 23.613281 10.71875 45.929687 27.855469 63.0625 18.003906 18.007812 41.945312 27.921875 67.410156 27.921875s49.402344-9.914063 67.410156-27.921875c33.5625-33.5625 36.820313-86.128907 9.773438-123.378907l97.285156-97.285156c16.171875 11.785156 35.585938 18.144532 55.980469 18.144532 25.464843 0 49.402343-9.917969 67.40625-27.925782 18.007812-18.003906 27.925781-41.945312 27.925781-67.410156s-9.914062-49.40625-27.921875-67.410156zm-21.214844 113.609375c-12.339843 12.339843-28.746093 19.136719-46.195312 19.136719-17.453125 0-33.859375-6.796876-46.199219-19.136719-2.8125-2.8125-6.628906-4.394531-10.605469-4.394531-3.976562 0-7.792969 1.582031-10.605469 4.394531l-116.839843 116.835937c-5.859375 5.859375-5.859375 15.355469 0 21.214844 25.472656 25.472656 25.472656 66.921875-.003907 92.394531-12.339843 12.339844-28.746093 19.136719-46.195312 19.136719-17.453125 0-33.859375-6.796875-46.199219-19.140625-14.664062-14.664063-21.398437-34.875-18.476562-55.445313.664062-4.667968-.90625-9.378906-4.242188-12.714843-2.835937-2.832031-6.65625-4.394531-10.605469-4.394531-.703124 0-1.40625.050781-2.113281.148437-3.050781.433594-6.167969.65625-9.253906.65625-17.453125 0-33.855469-6.796875-46.191406-19.132813-12.339844-12.339843-19.136719-28.746093-19.136719-46.195312 0-17.453125 6.796875-33.859375 19.136719-46.199219 12.339843-12.339843 28.746093-19.136719 46.195312-19.136719 17.453125 0 33.859375 6.796876 46.199219 19.136719 2.8125 2.8125 6.625 4.390625 10.605469 4.390625 3.976562 0 7.792969-1.578125 10.605469-4.390625l116.839843-116.839843c5.855469-5.855469 5.855469-15.351563 0-21.210938-25.472656-25.472656-25.472656-66.921875 0-92.394531 12.339844-12.339844 28.746094-19.136719 46.195313-19.136719 17.453125 0 33.859375 6.796875 46.199218 19.136719 14.667969 14.664062 21.402344 34.875 18.480469 55.449219-.664062 4.667968.910157 9.378906 4.246094 12.714843 3.335937 3.335938 8.046875 4.90625 12.714844 4.242188 3.054687-.433594 6.167969-.652344 9.253906-.652344 17.449219 0 33.855469 6.792969 46.191406 19.132813 12.339844 12.339843 19.136719 28.746093 19.136719 46.195312 0 17.453125-6.796875 33.859375-19.136719 46.199219zm0 0" transform="matrix(0.1171874925494194 0 0 0.1171874925494194 -29 175.00000010253905)" fill="#ffffff"/><path d="m484.078125 118.808594c-16.96875-16.96875-39.210937-26.753906-63.03125-27.820313-1.003906-23.617187-10.71875-45.929687-27.855469-63.066406-18.007812-18.007813-41.945312-27.921875-67.410156-27.921875s-49.40625 9.914062-67.410156 27.921875c-33.566406 33.5625-36.824219 86.128906-9.777344 123.378906l-97.28125 97.285157c-16.171875-11.785157-35.585938-18.140626-55.980469-18.140626 0 0 .003907 0 0 0-25.460937 0-49.402343 9.917969-67.40625 27.921876-18.007812 18.007812-27.925781 41.949218-27.925781 67.414062 0 25.460938 9.914062 49.402344 27.921875 67.40625 16.96875 16.96875 39.210937 26.753906 63.03125 27.824219 1.003906 23.613281 10.71875 45.929687 27.855469 63.0625 18.003906 18.007812 41.945312 27.921875 67.410156 27.921875s49.402344-9.914063 67.410156-27.921875c33.5625-33.5625 36.820313-86.128907 9.773438-123.378907l97.285156-97.285156c16.171875 11.785156 35.585938 18.144532 55.980469 18.144532 25.464843 0 49.402343-9.917969 67.40625-27.925782 18.007812-18.003906 27.925781-41.945312 27.925781-67.410156s-9.914062-49.40625-27.921875-67.410156zm-21.214844 113.609375c-12.339843 12.339843-28.746093 19.136719-46.195312 19.136719-17.453125 0-33.859375-6.796876-46.199219-19.136719-2.8125-2.8125-6.628906-4.394531-10.605469-4.394531-3.976562 0-7.792969 1.582031-10.605469 4.394531l-116.839843 116.835937c-5.859375 5.859375-5.859375 15.355469 0 21.214844 25.472656 25.472656 25.472656 66.921875-.003907 92.394531-12.339843 12.339844-28.746093 19.136719-46.195312 19.136719-17.453125 0-33.859375-6.796875-46.199219-19.140625-14.664062-14.664063-21.398437-34.875-18.476562-55.445313.664062-4.667968-.90625-9.378906-4.242188-12.714843-2.835937-2.832031-6.65625-4.394531-10.605469-4.394531-.703124 0-1.40625.050781-2.113281.148437-3.050781.433594-6.167969.65625-9.253906.65625-17.453125 0-33.855469-6.796875-46.191406-19.132813-12.339844-12.339843-19.136719-28.746093-19.136719-46.195312 0-17.453125 6.796875-33.859375 19.136719-46.199219 12.339843-12.339843 28.746093-19.136719 46.195312-19.136719 17.453125 0 33.859375 6.796876 46.199219 19.136719 2.8125 2.8125 6.625 4.390625 10.605469 4.390625 3.976562 0 7.792969-1.578125 10.605469-4.390625l116.839843-116.839843c5.855469-5.855469 5.855469-15.351563 0-21.210938-25.472656-25.472656-25.472656-66.921875 0-92.394531 12.339844-12.339844 28.746094-19.136719 46.195313-19.136719 17.453125 0 33.859375 6.796875 46.199218 19.136719 14.667969 14.664062 21.402344 34.875 18.480469 55.449219-.664062 4.667968.910157 9.378906 4.246094 12.714843 3.335937 3.335938 8.046875 4.90625 12.714844 4.242188 3.054687-.433594 6.167969-.652344 9.253906-.652344 17.449219 0 33.855469 6.792969 46.191406 19.132813 12.339844 12.339843 19.136719 28.746093 19.136719 46.195312 0 17.453125-6.796875 33.859375-19.136719 46.199219zm0 0" transform="matrix(0.1171874925494194 0 0 0.1171874925494194 247 76.00000011718748)" fill="#ffffff"/><path d="m484.078125 118.808594c-16.96875-16.96875-39.210937-26.753906-63.03125-27.820313-1.003906-23.617187-10.71875-45.929687-27.855469-63.066406-18.007812-18.007813-41.945312-27.921875-67.410156-27.921875s-49.40625 9.914062-67.410156 27.921875c-33.566406 33.5625-36.824219 86.128906-9.777344 123.378906l-97.28125 97.285157c-16.171875-11.785157-35.585938-18.140626-55.980469-18.140626 0 0 .003907 0 0 0-25.460937 0-49.402343 9.917969-67.40625 27.921876-18.007812 18.007812-27.925781 41.949218-27.925781 67.414062 0 25.460938 9.914062 49.402344 27.921875 67.40625 16.96875 16.96875 39.210937 26.753906 63.03125 27.824219 1.003906 23.613281 10.71875 45.929687 27.855469 63.0625 18.003906 18.007812 41.945312 27.921875 67.410156 27.921875s49.402344-9.914063 67.410156-27.921875c33.5625-33.5625 36.820313-86.128907 9.773438-123.378907l97.285156-97.285156c16.171875 11.785156 35.585938 18.144532 55.980469 18.144532 25.464843 0 49.402343-9.917969 67.40625-27.925782 18.007812-18.003906 27.925781-41.945312 27.925781-67.410156s-9.914062-49.40625-27.921875-67.410156zm-21.214844 113.609375c-12.339843 12.339843-28.746093 19.136719-46.195312 19.136719-17.453125 0-33.859375-6.796876-46.199219-19.136719-2.8125-2.8125-6.628906-4.394531-10.605469-4.394531-3.976562 0-7.792969 1.582031-10.605469 4.394531l-116.839843 116.835937c-5.859375 5.859375-5.859375 15.355469 0 21.214844 25.472656 25.472656 25.472656 66.921875-.003907 92.394531-12.339843 12.339844-28.746093 19.136719-46.195312 19.136719-17.453125 0-33.859375-6.796875-46.199219-19.140625-14.664062-14.664063-21.398437-34.875-18.476562-55.445313.664062-4.667968-.90625-9.378906-4.242188-12.714843-2.835937-2.832031-6.65625-4.394531-10.605469-4.394531-.703124 0-1.40625.050781-2.113281.148437-3.050781.433594-6.167969.65625-9.253906.65625-17.453125 0-33.855469-6.796875-46.191406-19.132813-12.339844-12.339843-19.136719-28.746093-19.136719-46.195312 0-17.453125 6.796875-33.859375 19.136719-46.199219 12.339843-12.339843 28.746093-19.136719 46.195312-19.136719 17.453125 0 33.859375 6.796876 46.199219 19.136719 2.8125 2.8125 6.625 4.390625 10.605469 4.390625 3.976562 0 7.792969-1.578125 10.605469-4.390625l116.839843-116.839843c5.855469-5.855469 5.855469-15.351563 0-21.210938-25.472656-25.472656-25.472656-66.921875 0-92.394531 12.339844-12.339844 28.746094-19.136719 46.195313-19.136719 17.453125 0 33.859375 6.796875 46.199218 19.136719 14.667969 14.664062 21.402344 34.875 18.480469 55.449219-.664062 4.667968.910157 9.378906 4.246094 12.714843 3.335937 3.335938 8.046875 4.90625 12.714844 4.242188 3.054687-.433594 6.167969-.652344 9.253906-.652344 17.449219 0 33.855469 6.792969 46.191406 19.132813 12.339844 12.339843 19.136719 28.746093 19.136719 46.195312 0 17.453125-6.796875 33.859375-19.136719 46.199219zm0 0" transform="matrix(0.1171874925494194 0 0 0.1171874925494194 -14 301.0000001318359)" fill="#ffffff"/></defs><g fi:class="KUsePattern" transform="matrix(1 0 0 1 20 20)"><pattern id="pattern_UNKNOWN" width="350" height="350" patternUnits="userSpaceOnUse"><use xlink:href="#UNKNOWN" x="-350" y="-350"/><use xlink:href="#UNKNOWN" x="0" y="-350"/><use xlink:href="#UNKNOWN" x="350" y="-350"/><use xlink:href="#UNKNOWN" x="-350" y="0"/><use xlink:href="#UNKNOWN" x="0" y="0"/><use xlink:href="#UNKNOWN" x="350" y="0"/><use xlink:href="#UNKNOWN" x="-350" y="350"/><use xlink:href="#UNKNOWN" x="0" y="350"/><use xlink:href="#UNKNOWN" x="350" y="350"/></pattern><rect x="0" y="0" width="100%" height="100%" fill="url(#pattern_UNKNOWN)"/></g><g fi:class="KUsePattern"><pattern id="pattern_L1_33" width="350" height="350" patternUnits="userSpaceOnUse"><use xlink:href="#L1_33" x="-350" y="-350"/><use xlink:href="#L1_33" x="0" y="-350"/><use xlink:href="#L1_33" x="350" y="-350"/><use xlink:href="#L1_33" x="-350" y="0"/><use xlink:href="#L1_33" x="0" y="0"/><use xlink:href="#L1_33" x="350" y="0"/><use xlink:href="#L1_33" x="-350" y="350"/><use xlink:href="#L1_33" x="0" y="350"/><use xlink:href="#L1_33" x="350" y="350"/></pattern><rect x="0" y="0" width="100%" height="100%" fill="url(#pattern_L1_33)"/></g><g fi:class="KUsePattern" transform="matrix(1 0 0 1 40 40)"><pattern id="pattern_UNKNOWN" width="350" height="350" patternUnits="userSpaceOnUse"><use xlink:href="#UNKNOWN" x="-350" y="-350"/><use xlink:href="#UNKNOWN" x="0" y="-350"/><use xlink:href="#UNKNOWN" x="350" y="-350"/><use xlink:href="#UNKNOWN" x="-350" y="0"/><use xlink:href="#UNKNOWN" x="0" y="0"/><use xlink:href="#UNKNOWN" x="350" y="0"/><use xlink:href="#UNKNOWN" x="-350" y="350"/><use xlink:href="#UNKNOWN" x="0" y="350"/><use xlink:href="#UNKNOWN" x="350" y="350"/></pattern><rect x="0" y="0" width="100%" height="100%" fill="url(#pattern_UNKNOWN)"/></g><g fi:class="KUsePattern" transform="matrix(1 0 0 1 60 60)"><pattern id="pattern_UNKNOWN" width="350" height="350" patternUnits="userSpaceOnUse"><use xlink:href="#UNKNOWN" x="-350" y="-350"/><use xlink:href="#UNKNOWN" x="0" y="-350"/><use xlink:href="#UNKNOWN" x="350" y="-350"/><use xlink:href="#UNKNOWN" x="-350" y="0"/><use xlink:href="#UNKNOWN" x="0" y="0"/><use xlink:href="#UNKNOWN" x="350" y="0"/><use xlink:href="#UNKNOWN" x="-350" y="350"/><use xlink:href="#UNKNOWN" x="0" y="350"/><use xlink:href="#UNKNOWN" x="350" y="350"/></pattern><rect x="0" y="0" width="100%" height="100%" fill="url(#pattern_UNKNOWN)"/></g><g fi:class="KUsePattern" transform="matrix(1 0 0 1 60 60)"><pattern id="pattern_UNKNOWN" width="350" height="350" patternUnits="userSpaceOnUse"><use xlink:href="#UNKNOWN" x="-350" y="-350"/><use xlink:href="#UNKNOWN" x="0" y="-350"/><use xlink:href="#UNKNOWN" x="350" y="-350"/><use xlink:href="#UNKNOWN" x="-350" y="0"/><use xlink:href="#UNKNOWN" x="0" y="0"/><use xlink:href="#UNKNOWN" x="350" y="0"/><use xlink:href="#UNKNOWN" x="-350" y="350"/><use xlink:href="#UNKNOWN" x="0" y="350"/><use xlink:href="#UNKNOWN" x="350" y="350"/></pattern><rect x="0" y="0" width="100%" height="100%" fill="url(#pattern_UNKNOWN)"/></g><g fi:class="KUsePattern" transform="matrix(1 0 0 1 80 80)"><pattern id="pattern_UNKNOWN" width="350" height="350" patternUnits="userSpaceOnUse"><use xlink:href="#UNKNOWN" x="-350" y="-350"/><use xlink:href="#UNKNOWN" x="0" y="-350"/><use xlink:href="#UNKNOWN" x="350" y="-350"/><use xlink:href="#UNKNOWN" x="-350" y="0"/><use xlink:href="#UNKNOWN" x="0" y="0"/><use xlink:href="#UNKNOWN" x="350" y="0"/><use xlink:href="#UNKNOWN" x="-350" y="350"/><use xlink:href="#UNKNOWN" x="0" y="350"/><use xlink:href="#UNKNOWN" x="350" y="350"/></pattern><rect x="0" y="0" width="100%" height="100%" fill="url(#pattern_UNKNOWN)"/></g></svg>